<svg width="1209" height="102" viewBox="0 0 1209 102" fill="none" xmlns="http://www.w3.org/2000/svg">
<path d="M18.2642 83C18.5175 70.2067 18.6442 58.1733 18.6442 46.9C18.6442 34.8033 18.5175 22.675 18.2642 10.515H40.7792C49.2659 10.515 56.2325 11.655 61.6792 13.935C67.1259 16.1517 71.2425 19.92 74.0292 25.24C76.8159 30.4967 78.2092 37.6217 78.2092 46.615C78.2092 58.4583 75.5175 67.4517 70.1342 73.595C64.8142 79.675 56.8025 82.81 46.0992 83H18.2642ZM42.4892 75.78C51.3559 75.78 57.8475 73.4683 61.9642 68.845C66.1442 64.2217 68.2342 56.9383 68.2342 46.995C68.2342 39.965 67.3475 34.3283 65.5742 30.085C63.8642 25.8417 61.0775 22.7383 57.2142 20.775C53.4142 18.7483 48.3159 17.735 41.9192 17.735H28.4292V75.78H42.4892ZM123.798 72.455C125.888 69.1617 127.281 65.5833 127.978 61.72L137.763 62.005C135.23 76.7617 126.3 84.14 110.973 84.14C102.043 84.14 95.2347 81.5117 90.5481 76.255C85.9247 70.935 83.6131 63.335 83.6131 53.455C83.6131 43.4483 86.0514 35.7533 90.9281 30.37C95.8047 24.9233 102.771 22.2 111.828 22.2C120.061 22.2 126.395 24.7333 130.828 29.8C135.261 34.8033 137.7 42.055 138.143 51.555H137.763L93.5881 55.545C93.8414 62.195 95.5514 67.3883 98.7181 71.125C101.948 74.8617 106.191 76.73 111.448 76.73C116.451 76.73 120.568 75.305 123.798 72.455ZM111.163 29.515C108.313 29.515 105.653 30.085 103.183 31.225C100.776 32.365 98.7497 33.9483 97.1031 35.975C95.0131 40.2817 93.8414 45.4433 93.5881 51.46L128.168 48.515C127.471 42.435 125.666 37.7483 122.753 34.455C119.903 31.1617 116.04 29.515 111.163 29.515ZM167.827 84.14C160.67 84.14 154.939 82.4933 150.632 79.2C146.389 75.9067 143.602 71.2517 142.272 65.235L151.487 64.285C154.21 72.645 160.037 76.825 168.967 76.825C173.527 76.825 177.454 75.8117 180.747 73.785C181.76 72.7717 182.52 71.505 183.027 69.985C183.597 68.4017 183.882 66.7867 183.882 65.14C183.882 63.05 183.344 61.34 182.267 60.01C181.19 58.68 179.449 57.635 177.042 56.875C174.699 56.115 171.437 55.4817 167.257 54.975C161.24 54.2783 156.585 53.265 153.292 51.935C149.999 50.5417 147.687 48.8 146.357 46.71C145.027 44.5567 144.362 41.8017 144.362 38.445C144.362 35.215 145.344 32.365 147.307 29.895C149.334 27.425 152.152 25.4933 155.762 24.1C159.372 22.7067 163.489 22.01 168.112 22.01C175.839 22.01 181.855 23.72 186.162 27.14C190.469 30.4967 193.224 35.785 194.427 43.005L185.307 44.24C184.167 39.2367 182.204 35.5317 179.417 33.125C176.694 30.655 172.704 29.42 167.447 29.42C165.547 29.42 163.71 29.6733 161.937 30.18C160.164 30.6233 158.675 31.1933 157.472 31.89C155.065 33.98 153.862 36.735 153.862 40.155C153.862 42.3083 154.274 44.0817 155.097 45.475C155.984 46.8683 157.599 48.04 159.942 48.99C162.349 49.94 165.769 50.7317 170.202 51.365C175.839 51.8717 180.272 52.7267 183.502 53.93C186.795 55.1333 189.139 56.7483 190.532 58.775C191.925 60.8017 192.622 63.3983 192.622 66.565C192.622 72.0117 190.374 76.3183 185.877 79.485C181.444 82.5883 175.427 84.14 167.827 84.14ZM287.605 30.655C284.121 30.655 281.303 31.7 279.15 33.79C277.06 35.8167 275.381 38.6983 274.115 42.435C274.115 46.235 273.228 49.5917 271.455 52.505C269.745 55.4183 267.306 57.6983 264.14 59.345C260.973 60.9283 257.363 61.72 253.31 61.72C248.053 61.72 243.778 60.8017 240.485 58.965L236.59 66.28C236.146 66.9133 235.925 67.4833 235.925 67.99C235.925 68.8767 236.431 69.32 237.445 69.32C249.921 69.2567 263.253 68.9083 277.44 68.275C277.946 68.275 278.865 68.6867 280.195 69.51C281.588 70.3333 282.823 71.5367 283.9 73.12C285.04 74.64 285.61 76.445 285.61 78.535C285.61 81.6383 284.375 84.7417 281.905 87.845C279.435 90.9483 275.73 93.5133 270.79 95.54C265.913 97.5667 260.086 98.5483 253.31 98.485C248.116 98.4217 243.208 97.3133 238.585 95.16C233.961 93.07 230.731 89.9983 228.895 85.945L237.35 82.05C239.25 84.7733 241.751 86.8 244.855 88.13C247.958 89.46 251.758 90.125 256.255 90.125C259.865 90.125 262.968 89.7767 265.565 89.08C268.161 88.3833 270.156 87.4967 271.55 86.42C272.626 85.66 273.545 84.7417 274.305 83.665C275.065 82.5883 275.508 81.575 275.635 80.625C275.191 78.4083 274.368 76.9833 273.165 76.35C272.025 75.7167 270.061 75.4 267.275 75.4L235.26 75.495C234.183 75.495 233.233 74.7983 232.41 73.405C231.65 72.0117 231.27 70.555 231.27 69.035C231.27 68.085 231.46 67.325 231.84 66.755L237.92 57.255C233.74 53.7717 231.65 48.4833 231.65 41.39C231.65 35.3733 233.518 30.655 237.255 27.235C241.055 23.7517 246.406 22.01 253.31 22.01C257.49 22.01 261.068 22.77 264.045 24.29C267.021 25.81 269.238 27.9 270.695 30.56C272.151 33.22 272.753 36.2283 272.5 39.585L273.26 39.68C273.45 34.2967 274.78 29.9583 277.25 26.665C279.72 23.3083 283.203 21.63 287.7 21.63L287.605 30.655ZM262.145 52.03C264.361 49.4333 265.47 45.95 265.47 41.58C265.47 38.0333 264.33 35.025 262.05 32.555C259.77 30.085 256.73 28.85 252.93 28.85C249.383 28.85 246.438 29.6417 244.095 31.225C241.435 33.885 240.105 37.305 240.105 41.485C240.105 45.665 241.245 48.9583 243.525 51.365C245.805 53.7083 249.098 54.88 253.405 54.88C254.925 54.88 256.476 54.6267 258.06 54.12C259.643 53.6133 261.005 52.9167 262.145 52.03ZM298.042 83C298.359 76.73 298.517 66.8183 298.517 53.265C298.517 39.7117 298.422 29.7683 298.232 23.435H308.587L307.257 41.01H308.112C309.759 35.4367 312.767 30.9083 317.137 27.425C321.507 23.9417 326.352 22.2 331.672 22.2C338.069 22.2 342.502 24.2267 344.972 28.28C347.506 32.27 348.867 38.35 349.057 46.52C349.121 48.7367 349.152 51.2067 349.152 53.93C349.152 56.6533 349.184 59.3767 349.247 62.1C349.247 64.6333 349.279 68.37 349.342 73.31C349.406 78.25 349.469 81.48 349.532 83H339.177L339.462 67.895V65.14C339.399 63.62 339.367 59.2183 339.367 51.935C339.367 47.8183 339.146 44.2083 338.702 41.105C338.259 38.0017 337.151 35.31 335.377 33.03C333.604 30.6867 330.881 29.515 327.207 29.515C323.154 29.515 319.386 30.9083 315.902 33.695C312.419 36.4817 309.854 40.0283 308.207 44.335V56.59C308.207 68.18 308.334 76.9833 308.587 83H298.042ZM370.581 72.74C370.961 75.02 371.151 77.0467 371.151 78.82C371.151 81.9867 370.075 85.09 367.921 88.13C365.831 91.2333 363.171 93.355 359.941 94.495L359.086 93.545C359.973 92.5317 361.081 90.8217 362.411 88.415C363.741 86.0717 364.438 84.5517 364.501 83.855C363.931 83.7917 363.203 83.6017 362.316 83.285C361.43 82.9683 360.765 82.62 360.321 82.24L359.371 72.74H370.581ZM422.778 88.98C418.271 88.98 414.111 88.2 410.298 86.64C406.571 85.1667 403.581 82.87 401.328 79.75C399.161 76.5433 398.078 72.47 398.078 67.53C398.078 64.7567 398.468 61.7667 399.248 58.56C400.461 53.4467 402.455 48.3333 405.228 43.22C408.088 38.1067 411.468 33.2967 415.368 28.79C419.355 24.2833 423.688 20.2967 428.368 16.83C433.048 13.2767 437.858 10.5033 442.798 8.51C447.825 6.43 452.808 5.39 457.748 5.39C459.221 5.39 460.738 5.52 462.298 5.77999C465.765 6.38666 468.321 7.68667 469.968 9.68C471.701 11.5867 472.568 13.7967 472.568 16.31C472.568 19.2567 471.615 22.2033 469.708 25.15C467.801 28.0967 465.288 30.9133 462.168 33.6C459.135 36.2 455.798 38.54 452.158 40.62C448.605 42.7 445.095 44.39 441.628 45.69C438.161 46.99 435.085 47.7267 432.398 47.9C430.751 47.9867 429.928 47.51 429.928 46.47C429.928 45.95 430.188 45.43 430.708 44.91C431.315 44.3033 432.138 43.9567 433.178 43.87C439.938 43.2633 446.221 41.2267 452.028 37.76C457.921 34.2067 462.428 29.3967 465.548 23.33C466.241 22.03 466.761 20.73 467.108 19.43C467.541 18.0433 467.758 16.7433 467.758 15.53C467.758 13.6233 467.195 12.02 466.068 10.72C465.028 9.33333 463.165 8.64 460.478 8.64C457.531 8.64 454.065 9.55 450.078 11.37C446.091 13.1033 441.888 15.5733 437.468 18.78C433.135 21.9867 428.845 25.8 424.598 30.22C420.438 34.5533 416.668 39.32 413.288 44.52C409.995 49.6333 407.438 55.05 405.618 60.77C404.491 64.2367 403.928 67.4433 403.928 70.39C403.928 75.6767 405.748 79.5767 409.388 82.09C413.028 84.5167 417.751 85.73 423.558 85.73C428.585 85.73 434.088 84.8633 440.068 83.13C446.135 81.3967 452.028 78.7533 457.748 75.2C463.468 71.56 468.278 66.9667 472.178 61.42C472.438 61.0733 472.741 60.9 473.088 60.9C473.435 60.9 473.738 61.0733 473.998 61.42C474.345 61.7667 474.388 62.1133 474.128 62.46C469.621 68.7 464.421 73.77 458.528 77.67C452.721 81.57 446.698 84.43 440.458 86.25C434.218 88.07 428.325 88.98 422.778 88.98ZM477.532 84.43C475.105 84.43 472.982 83.8667 471.162 82.74C468.128 80.92 466.612 77.6267 466.612 72.86C466.612 70.8667 466.958 68.57 467.652 65.97C468.258 63.8033 469.342 61.4633 470.902 58.95C472.462 56.35 474.282 53.88 476.362 51.54C478.528 49.2 480.868 47.2933 483.382 45.82C485.895 44.3467 488.408 43.61 490.922 43.61C491.962 43.61 492.872 43.74 493.652 44C494.692 44.3467 495.558 44.9967 496.252 45.95C497.032 46.8167 497.422 47.9433 497.422 49.33C497.422 50.8033 497.032 51.6267 496.252 51.8C495.558 51.9733 495.212 51.8 495.212 51.28C495.212 51.1067 495.212 50.9333 495.212 50.76C495.298 50.5867 495.342 50.4567 495.342 50.37C495.342 49.6767 495.125 49.07 494.692 48.55C494.345 47.9433 493.652 47.64 492.612 47.64C491.225 47.64 489.492 48.3767 487.412 49.85C485.418 51.3233 483.338 53.3167 481.172 55.83C479.092 58.2567 477.228 60.9433 475.582 63.89C474.022 66.8367 472.982 69.7833 472.462 72.73C472.375 73.1633 472.288 73.5967 472.202 74.03C472.202 74.3767 472.202 74.7667 472.202 75.2C472.202 77.1933 472.635 78.8833 473.502 80.27C474.455 81.57 475.928 82.22 477.922 82.22C480.348 82.22 482.688 81.31 484.942 79.49C487.195 77.5833 489.188 75.33 490.922 72.73C492.742 70.13 494.085 67.8333 494.952 65.84C495.645 64.28 496.122 62.9367 496.382 61.81C496.642 60.6833 496.772 59.73 496.772 58.95C496.772 58.2567 496.685 57.65 496.512 57.13C496.425 56.61 496.295 56.1767 496.122 55.83C495.948 55.31 495.862 54.92 495.862 54.66C495.862 53.9667 496.122 53.4033 496.642 52.97C497.248 52.5367 497.855 52.32 498.462 52.32C498.982 52.32 499.545 52.4933 500.152 52.84C500.845 53.0133 501.798 53.1433 503.012 53.23C504.225 53.3167 505.525 53.36 506.912 53.36C508.385 53.36 509.858 53.3167 511.332 53.23C512.892 53.1433 514.235 52.97 515.362 52.71C515.535 52.6233 515.795 52.58 516.142 52.58C516.748 52.58 517.052 52.7533 517.052 53.1C517.052 53.4467 516.748 53.75 516.142 54.01C513.108 55.3967 510.378 56.1333 507.952 56.22C505.612 56.3067 503.575 56.35 501.842 56.35C502.015 58.5167 501.538 60.8567 500.412 63.37C499.285 65.7967 498.115 67.9633 496.902 69.87C495.428 72.0367 493.738 74.2467 491.832 76.5C489.925 78.7533 487.802 80.66 485.462 82.22C483.122 83.6933 480.478 84.43 477.532 84.43ZM504.4 84.69C503.793 84.69 503.62 84.3867 503.88 83.78C504.14 83.26 504.617 82.09 505.31 80.27C506.003 78.3633 506.783 76.11 507.65 73.51C508.603 70.91 509.557 68.2233 510.51 65.45C511.463 62.6767 512.33 60.0767 513.11 57.65C513.977 55.2233 514.67 53.3167 515.19 51.93C515.363 51.41 515.537 50.6733 515.71 49.72C515.883 48.68 516.23 47.77 516.75 46.99C517.357 46.1233 518.353 45.69 519.74 45.69C522.34 45.69 523.64 46.2967 523.64 47.51C523.64 47.9433 523.423 48.68 522.99 49.72C521.95 52.06 520.823 54.7467 519.61 57.78C518.397 60.8133 517.313 63.6733 516.36 66.36C515.407 69.0467 514.67 71.1267 514.15 72.6C515.017 71.3867 516.403 69.6533 518.31 67.4C520.303 65.1467 522.513 62.72 524.94 60.12C527.367 57.52 529.88 55.0067 532.48 52.58C535.167 50.1533 537.637 48.2033 539.89 46.73C542.23 45.17 544.223 44.39 545.87 44.39C547.95 44.39 548.99 45.5167 548.99 47.77C548.99 48.55 548.773 49.72 548.34 51.28C547.56 53.4467 546.563 55.57 545.35 57.65C544.137 59.6433 543.053 61.7667 542.1 64.02C540.453 68.0933 539.5 71.3867 539.24 73.9C539.153 74.2467 539.11 74.5933 539.11 74.94C539.11 75.2 539.11 75.5033 539.11 75.85C539.11 79.3167 540.28 81.05 542.62 81.05C543.92 81.05 545.653 80.27 547.82 78.71C549.987 77.15 552.197 75.2867 554.45 73.12C556.79 70.9533 558.87 68.8733 560.69 66.88C562.51 64.8 563.767 63.24 564.46 62.2C564.72 61.94 564.98 61.81 565.24 61.81C565.587 61.81 565.847 61.94 566.02 62.2C566.28 62.46 566.323 62.8067 566.15 63.24C565.37 64.7133 564.027 66.5767 562.12 68.83C560.3 70.9967 558.263 73.2067 556.01 75.46C553.757 77.6267 551.547 79.49 549.38 81.05C548.08 81.9167 546.477 82.6967 544.57 83.39C542.663 84.0833 540.757 84.3867 538.85 84.3C536.423 84.04 534.69 83.2167 533.65 81.83C532.61 80.3567 532.09 78.6233 532.09 76.63C532.09 74.29 532.523 71.82 533.39 69.22C534.343 66.5333 535.383 64.02 536.51 61.68C537.637 59.34 538.547 57.5633 539.24 56.35C539.933 54.9633 540.28 53.88 540.28 53.1C540.28 52.4067 539.977 52.06 539.37 52.06C538.763 52.06 537.853 52.45 536.64 53.23C535.427 54.01 533.78 55.3533 531.7 57.26C529.793 58.9067 527.757 61.0733 525.59 63.76C523.423 66.36 521.3 69.0467 519.22 71.82C517.227 74.5933 515.45 76.9767 513.89 78.97C512.417 80.9633 511.377 82.1333 510.77 82.48C510.337 82.74 509.34 83.1733 507.78 83.78C506.307 84.3867 505.18 84.69 504.4 84.69ZM566.188 84.3C564.628 84.3 563.198 83.9533 561.898 83.26C560.685 82.5667 559.775 81.2667 559.168 79.36C559.082 79.1 558.995 78.84 558.908 78.58C558.908 78.32 558.908 78.0167 558.908 77.67C558.908 75.9367 559.298 73.77 560.078 71.17C560.858 68.57 561.812 66.0567 562.938 63.63C562.418 64.3233 561.812 65.19 561.118 66.23C560.425 67.1833 559.428 68.44 558.128 70C557.782 70.3467 557.392 70.52 556.958 70.52C556.352 70.52 556.048 70.1733 556.048 69.48C556.048 68.96 556.222 68.5267 556.568 68.18C558.822 65.32 560.815 62.7633 562.548 60.51C564.368 58.2567 565.712 56.35 566.578 54.79C566.578 54.6167 566.838 54.0967 567.358 53.23C567.878 52.2767 568.572 50.9767 569.438 49.33C568.745 49.4167 568.138 49.5033 567.618 49.59C567.185 49.59 566.795 49.59 566.448 49.59C565.842 49.59 565.322 49.33 564.888 48.81C564.455 48.29 564.412 47.64 564.758 46.86C565.192 45.6467 566.145 44.9533 567.618 44.78C569.092 44.6067 570.392 44.4767 571.518 44.39C571.605 44.2167 571.778 44.13 572.038 44.13C573.078 42.2233 574.075 40.36 575.028 38.54C575.982 36.72 576.762 35.2033 577.368 33.99C578.062 32.7767 578.408 32.1267 578.408 32.04C580.142 29.2667 581.268 27.4467 581.788 26.58C582.308 25.6267 583.002 25.0633 583.868 24.89C584.822 24.8033 585.818 24.8467 586.858 25.02C587.985 25.1933 588.722 25.5833 589.068 26.19C589.328 26.5367 589.458 26.97 589.458 27.49C589.458 28.27 589.285 29.05 588.938 29.83C588.592 30.5233 588.245 31.0867 587.898 31.52C587.552 32.1267 587.075 32.56 586.468 32.82C585.948 32.9933 585.472 33.5133 585.038 34.38C584.172 36.0267 583.218 37.8033 582.178 39.71C581.138 41.6167 580.055 43.4367 578.928 45.17L580.488 45.04C582.568 44.8667 584.518 44.65 586.338 44.39C588.245 44.13 590.412 44.0433 592.838 44.13C593.272 44.13 593.705 44.2167 594.138 44.39C594.658 44.4767 594.918 44.65 594.918 44.91C594.918 45.2567 593.792 45.7333 591.538 46.34C590.672 46.6867 588.765 47.0767 585.818 47.51C582.958 47.8567 580.012 48.2033 576.978 48.55C576.112 50.1967 575.332 51.5833 574.638 52.71C573.945 53.75 573.468 54.53 573.208 55.05C571.302 59.0367 569.568 62.6767 568.008 65.97C566.535 69.1767 565.712 71.82 565.538 73.9C565.452 74.2467 565.408 74.5933 565.408 74.94C565.408 75.2 565.408 75.5033 565.408 75.85C565.408 79.3167 566.535 81.05 568.788 81.05C570.175 81.05 571.952 80.3133 574.118 78.84C576.285 77.28 578.495 75.4167 580.748 73.25C583.002 70.9967 585.038 68.8733 586.858 66.88C588.765 64.8 590.065 63.24 590.758 62.2C591.018 61.94 591.278 61.81 591.538 61.81C591.885 61.81 592.145 61.94 592.318 62.2C592.578 62.46 592.622 62.8067 592.448 63.24C591.668 64.7133 590.325 66.5767 588.418 68.83C586.598 70.9967 584.518 73.2067 582.178 75.46C579.925 77.6267 577.715 79.49 575.548 81.05C574.422 81.9167 572.992 82.6533 571.258 83.26C569.612 83.9533 567.922 84.3 566.188 84.3ZM598.375 84.95C594.475 84.95 591.095 84.04 588.235 82.22C585.375 80.4 583.945 77.6267 583.945 73.9C583.945 71.9067 584.551 69.48 585.765 66.62C586.631 64.6267 588.235 62.33 590.575 59.73C592.915 57.13 595.645 54.6167 598.765 52.19C601.885 49.6767 605.048 47.64 608.255 46.08C611.461 44.4333 614.365 43.61 616.965 43.61C617.918 43.61 618.785 43.74 619.565 44C621.038 44.52 622.035 45.3433 622.555 46.47C623.161 47.5967 623.465 48.7667 623.465 49.98C623.465 51.1067 623.291 52.19 622.945 53.23C622.598 54.27 622.165 55.18 621.645 55.96C620.085 58.3 617.831 60.38 614.885 62.2C612.025 64.02 609.078 65.45 606.045 66.49C603.098 67.53 600.671 68.1367 598.765 68.31H598.505C597.378 68.31 596.815 67.9633 596.815 67.27C596.815 66.8367 597.161 66.62 597.855 66.62C599.935 66.4467 602.535 65.4933 605.655 63.76C608.861 61.94 611.678 60.0767 614.105 58.17C615.145 57.3033 616.358 56.09 617.745 54.53C619.218 52.97 619.955 51.4533 619.955 49.98C619.955 48.42 619.218 47.64 617.745 47.64C616.965 47.64 616.141 47.8133 615.275 48.16C614.495 48.5067 613.845 48.7667 613.325 48.94C610.811 50.1533 608.038 52.06 605.005 54.66C601.971 57.1733 599.198 60.0333 596.685 63.24C594.258 66.36 592.568 69.5233 591.615 72.73C591.355 73.4233 591.181 74.1167 591.095 74.81C591.008 75.4167 590.965 76.0233 590.965 76.63C590.965 78.71 591.615 80.1833 592.915 81.05C594.301 81.9167 595.948 82.35 597.855 82.35C600.715 82.35 603.661 81.7433 606.695 80.53C609.728 79.23 612.675 77.5833 615.535 75.59C618.395 73.5967 620.995 71.4733 623.335 69.22C625.761 66.88 627.798 64.6267 629.445 62.46C629.705 62.1133 630.008 61.94 630.355 61.94C630.701 61.8533 630.918 61.8967 631.005 62.07C631.351 62.1567 631.525 62.4167 631.525 62.85C631.525 63.1967 631.438 63.5433 631.265 63.89C628.838 67.27 625.891 70.5633 622.425 73.77C619.045 76.9767 615.275 79.6633 611.115 81.83C607.041 83.91 602.795 84.95 598.375 84.95ZM619.998 84.69C619.392 84.69 619.218 84.3867 619.478 83.78C619.738 83.26 620.215 82.09 620.908 80.27C621.602 78.3633 622.382 76.11 623.248 73.51C624.202 70.91 625.155 68.2233 626.108 65.45C627.062 62.6767 627.928 60.0767 628.708 57.65C629.575 55.2233 630.268 53.3167 630.788 51.93C630.962 51.41 631.135 50.6733 631.308 49.72C631.482 48.68 631.828 47.77 632.348 46.99C632.955 46.1233 633.952 45.69 635.338 45.69C637.938 45.69 639.238 46.2967 639.238 47.51C639.238 47.9433 639.022 48.68 638.588 49.72C637.548 52.06 636.422 54.7467 635.208 57.78C633.995 60.8133 632.912 63.6733 631.958 66.36C631.005 69.0467 630.268 71.1267 629.748 72.6C630.615 71.3867 632.002 69.6533 633.908 67.4C635.902 65.1467 638.112 62.72 640.538 60.12C642.965 57.52 645.478 55.0067 648.078 52.58C650.765 50.1533 653.235 48.2033 655.488 46.73C657.828 45.17 659.822 44.39 661.468 44.39C663.548 44.39 664.588 45.5167 664.588 47.77C664.588 48.55 664.372 49.72 663.938 51.28C663.158 53.4467 662.162 55.57 660.948 57.65C659.735 59.6433 658.652 61.7667 657.698 64.02C656.052 68.0933 655.098 71.3867 654.838 73.9C654.752 74.2467 654.708 74.5933 654.708 74.94C654.708 75.2 654.708 75.5033 654.708 75.85C654.708 79.3167 655.878 81.05 658.218 81.05C659.518 81.05 661.252 80.27 663.418 78.71C665.585 77.15 667.795 75.2867 670.048 73.12C672.388 70.9533 674.468 68.8733 676.288 66.88C678.108 64.8 679.365 63.24 680.058 62.2C680.318 61.94 680.578 61.81 680.838 61.81C681.185 61.81 681.445 61.94 681.618 62.2C681.878 62.46 681.922 62.8067 681.748 63.24C680.968 64.7133 679.625 66.5767 677.718 68.83C675.898 70.9967 673.862 73.2067 671.608 75.46C669.355 77.6267 667.145 79.49 664.978 81.05C663.678 81.9167 662.075 82.6967 660.168 83.39C658.262 84.0833 656.355 84.3867 654.448 84.3C652.022 84.04 650.288 83.2167 649.248 81.83C648.208 80.3567 647.688 78.6233 647.688 76.63C647.688 74.29 648.122 71.82 648.988 69.22C649.942 66.5333 650.982 64.02 652.108 61.68C653.235 59.34 654.145 57.5633 654.838 56.35C655.532 54.9633 655.878 53.88 655.878 53.1C655.878 52.4067 655.575 52.06 654.968 52.06C654.362 52.06 653.452 52.45 652.238 53.23C651.025 54.01 649.378 55.3533 647.298 57.26C645.392 58.9067 643.355 61.0733 641.188 63.76C639.022 66.36 636.898 69.0467 634.818 71.82C632.825 74.5933 631.048 76.9767 629.488 78.97C628.015 80.9633 626.975 82.1333 626.368 82.48C625.935 82.74 624.938 83.1733 623.378 83.78C621.905 84.3867 620.778 84.69 619.998 84.69ZM681.787 84.3C680.227 84.3 678.797 83.9533 677.497 83.26C676.284 82.5667 675.374 81.2667 674.767 79.36C674.68 79.1 674.594 78.84 674.507 78.58C674.507 78.32 674.507 78.0167 674.507 77.67C674.507 75.9367 674.897 73.77 675.677 71.17C676.457 68.57 677.41 66.0567 678.537 63.63C678.017 64.3233 677.41 65.19 676.717 66.23C676.024 67.1833 675.027 68.44 673.727 70C673.38 70.3467 672.99 70.52 672.557 70.52C671.95 70.52 671.647 70.1733 671.647 69.48C671.647 68.96 671.82 68.5267 672.167 68.18C674.42 65.32 676.414 62.7633 678.147 60.51C679.967 58.2567 681.31 56.35 682.177 54.79C682.177 54.6167 682.437 54.0967 682.957 53.23C683.477 52.2767 684.17 50.9767 685.037 49.33C684.344 49.4167 683.737 49.5033 683.217 49.59C682.784 49.59 682.394 49.59 682.047 49.59C681.44 49.59 680.92 49.33 680.487 48.81C680.054 48.29 680.01 47.64 680.357 46.86C680.79 45.6467 681.744 44.9533 683.217 44.78C684.69 44.6067 685.99 44.4767 687.117 44.39C687.204 44.2167 687.377 44.13 687.637 44.13C688.677 42.2233 689.674 40.36 690.627 38.54C691.58 36.72 692.36 35.2033 692.967 33.99C693.66 32.7767 694.007 32.1267 694.007 32.04C695.74 29.2667 696.867 27.4467 697.387 26.58C697.907 25.6267 698.6 25.0633 699.467 24.89C700.42 24.8033 701.417 24.8467 702.457 25.02C703.584 25.1933 704.32 25.5833 704.667 26.19C704.927 26.5367 705.057 26.97 705.057 27.49C705.057 28.27 704.884 29.05 704.537 29.83C704.19 30.5233 703.844 31.0867 703.497 31.52C703.15 32.1267 702.674 32.56 702.067 32.82C701.547 32.9933 701.07 33.5133 700.637 34.38C699.77 36.0267 698.817 37.8033 697.777 39.71C696.737 41.6167 695.654 43.4367 694.527 45.17L696.087 45.04C698.167 44.8667 700.117 44.65 701.937 44.39C703.844 44.13 706.01 44.0433 708.437 44.13C708.87 44.13 709.304 44.2167 709.737 44.39C710.257 44.4767 710.517 44.65 710.517 44.91C710.517 45.2567 709.39 45.7333 707.137 46.34C706.27 46.6867 704.364 47.0767 701.417 47.51C698.557 47.8567 695.61 48.2033 692.577 48.55C691.71 50.1967 690.93 51.5833 690.237 52.71C689.544 53.75 689.067 54.53 688.807 55.05C686.9 59.0367 685.167 62.6767 683.607 65.97C682.134 69.1767 681.31 71.82 681.137 73.9C681.05 74.2467 681.007 74.5933 681.007 74.94C681.007 75.2 681.007 75.5033 681.007 75.85C681.007 79.3167 682.134 81.05 684.387 81.05C685.774 81.05 687.55 80.3133 689.717 78.84C691.884 77.28 694.094 75.4167 696.347 73.25C698.6 70.9967 700.637 68.8733 702.457 66.88C704.364 64.8 705.664 63.24 706.357 62.2C706.617 61.94 706.877 61.81 707.137 61.81C707.484 61.81 707.744 61.94 707.917 62.2C708.177 62.46 708.22 62.8067 708.047 63.24C707.267 64.7133 705.924 66.5767 704.017 68.83C702.197 70.9967 700.117 73.2067 697.777 75.46C695.524 77.6267 693.314 79.49 691.147 81.05C690.02 81.9167 688.59 82.6533 686.857 83.26C685.21 83.9533 683.52 84.3 681.787 84.3ZM728.631 98.47C728.371 98.6433 728.111 98.73 727.851 98.73C727.504 98.73 727.287 98.5567 727.201 98.21C727.201 97.95 727.201 97.7767 727.201 97.69C727.201 97.6033 727.461 97.17 727.981 96.39C728.587 95.6967 729.281 94.9167 730.061 94.05C731.274 92.5767 732.401 91.0167 733.441 89.37C734.481 87.81 735.304 86.0767 735.911 84.17C736.257 83.39 736.431 82.6533 736.431 81.96C736.431 81.0933 736.214 80.4867 735.781 80.14C735.434 79.7067 735.261 79.1433 735.261 78.45C735.261 77.93 735.304 77.54 735.391 77.28C735.651 76.5 736.214 76.11 737.081 76.11C738.034 76.11 738.684 76.11 739.031 76.11C740.071 76.11 740.894 76.63 741.501 77.67C742.107 78.6233 742.411 79.49 742.411 80.27C742.411 81.1367 741.847 82.4367 740.721 84.17C739.594 85.9033 738.207 87.7667 736.561 89.76C735.001 91.7533 733.484 93.5733 732.011 95.22C730.537 96.8667 729.411 97.95 728.631 98.47ZM789.44 86.04C788.996 86.1033 788.553 86.135 788.11 86.135C787.666 86.135 787.223 86.135 786.78 86.135C782.79 86.135 779.465 85.47 776.805 84.14C774.208 82.8733 772.245 81.2267 770.915 79.2C769.648 77.11 769.015 74.925 769.015 72.645C769.015 69.795 769.965 67.0083 771.865 64.285C773.828 61.5617 776.646 59.5033 780.32 58.11C782.473 57.2867 784.531 56.78 786.495 56.59C788.521 56.4 790.39 56.305 792.1 56.305C793.81 56.2417 795.235 56.1467 796.375 56.02C794.855 54.69 793.303 53.075 791.72 51.175C790.136 49.2117 788.806 47.09 787.73 44.81C786.653 42.53 786.115 40.2817 786.115 38.065C786.115 37.0517 786.241 36.07 786.495 35.12C786.748 34.17 787.191 33.2833 787.825 32.46C788.521 31.51 789.598 30.7183 791.055 30.085C792.575 29.3883 794.221 28.85 795.995 28.47C797.831 28.09 799.51 27.9 801.03 27.9C802.993 27.9 804.925 28.375 806.825 29.325C808.788 30.275 810.371 31.4783 811.575 32.935C812.081 32.3017 812.651 31.7317 813.285 31.225C813.918 30.7183 814.583 30.4333 815.28 30.37C815.406 30.3067 815.596 30.275 815.85 30.275C816.356 30.275 816.768 30.4017 817.085 30.655C817.465 30.845 817.655 31.13 817.655 31.51C817.655 31.8267 817.465 32.1433 817.085 32.46C816.831 32.84 816.356 33.2517 815.66 33.695C815.026 34.1383 814.361 34.7083 813.665 35.405C812.778 36.2283 811.986 37.1783 811.29 38.255C810.593 39.2683 810.245 40.3133 810.245 41.39C810.245 42.0233 810.435 42.625 810.815 43.195C810.878 43.2583 810.91 43.3533 810.91 43.48C810.91 43.7967 810.72 43.955 810.34 43.955C810.023 43.955 809.706 43.7967 809.39 43.48C809.073 43.0367 808.915 42.0867 808.915 40.63C808.915 39.7433 809.01 38.825 809.2 37.875C809.39 36.8617 809.706 35.9433 810.15 35.12C810.213 35.0567 810.245 34.9933 810.245 34.93C810.308 34.8033 810.371 34.7083 810.435 34.645C809.421 33.505 807.996 32.46 806.16 31.51C804.386 30.56 802.55 30.085 800.65 30.085C799.953 30.085 799.256 30.18 798.56 30.37C796.406 30.8133 794.918 31.8267 794.095 33.41C793.271 34.9933 792.86 36.7983 792.86 38.825C792.86 40.6617 793.113 42.5933 793.62 44.62C794.19 46.6467 794.886 48.515 795.71 50.225C796.533 51.935 797.356 53.3283 798.18 54.405C798.94 55.4183 799.32 56.1467 799.32 56.59C799.32 57.0967 798.75 57.445 797.61 57.635C794.696 57.9517 791.846 58.6167 789.06 59.63C786.336 60.6433 784.151 61.5617 782.505 62.385C779.591 63.8417 777.406 65.615 775.95 67.705C774.493 69.795 773.765 71.8533 773.765 73.88C773.765 76.6033 774.968 79.01 777.375 81.1C779.781 83.1267 783.201 84.14 787.635 84.14C788.078 84.14 788.521 84.14 788.965 84.14C789.408 84.14 789.851 84.1083 790.295 84.045C794.158 83.665 797.831 82.7467 801.315 81.29C804.861 79.8333 807.996 77.7433 810.72 75.02C813.443 72.2333 815.438 68.6867 816.705 64.38C817.021 63.4933 817.211 62.575 817.275 61.625C817.401 60.675 817.465 59.7883 817.465 58.965C817.465 58.0783 817.401 57.2867 817.275 56.59C817.211 55.8933 817.085 55.3867 816.895 55.07C815.058 56.1467 813.126 57.2233 811.1 58.3C809.136 59.3133 807.331 60.3583 805.685 61.435C804.798 61.9417 803.595 62.8917 802.075 64.285C800.618 65.615 799.32 67.0717 798.18 68.655C797.04 70.2383 796.47 71.695 796.47 73.025C796.47 73.975 796.85 74.735 797.61 75.305C798.116 75.685 798.37 76.065 798.37 76.445C798.37 76.635 798.211 76.73 797.895 76.73C797.641 76.73 797.388 76.6667 797.135 76.54C796.311 76.2867 795.678 75.6217 795.235 74.545C794.855 73.4683 794.665 72.2333 794.665 70.84C794.665 68.8767 795.045 67.135 795.805 65.615C796.501 64.285 797.483 63.145 798.75 62.195C800.08 61.1817 801.663 60.1367 803.5 59.06C805.78 57.73 808.218 56.4317 810.815 55.165C813.411 53.8983 815.85 52.695 818.13 51.555C820.41 50.3517 822.278 49.18 823.735 48.04C825.191 46.8367 825.92 45.6333 825.92 44.43C825.92 44.24 825.92 44.05 825.92 43.86C825.92 43.67 825.856 43.48 825.73 43.29C825.73 43.2267 825.698 43.195 825.635 43.195C825.635 43.1317 825.635 43.0683 825.635 43.005C825.635 42.7517 825.73 42.625 825.92 42.625C826.236 42.625 826.521 42.8467 826.775 43.29C827.028 43.86 827.155 44.4933 827.155 45.19C827.155 46.9 826.3 48.515 824.59 50.035C822.88 51.555 820.758 53.0433 818.225 54.5C818.921 55.26 819.681 56.4317 820.505 58.015C821.328 59.5983 821.74 61.2133 821.74 62.86C821.74 63.1133 821.74 63.3667 821.74 63.62C821.74 63.81 821.708 64.0317 821.645 64.285C821.011 67.9583 819.555 71.125 817.275 73.785C815.058 76.3817 812.366 78.5667 809.2 80.34C806.033 82.05 802.708 83.3483 799.225 84.235C795.805 85.185 792.543 85.7867 789.44 86.04ZM892.277 73.025L853.232 56.02V49.845L892.277 32.84L894.652 38.16L859.882 52.98L894.652 67.8L892.277 73.025ZM933.77 84.235C923.066 84.235 914.928 81.0367 909.355 74.64C903.781 68.2433 900.995 58.965 900.995 46.805C900.995 34.7083 903.781 25.4933 909.355 19.16C914.991 12.7633 923.13 9.56499 933.77 9.56499C951.44 9.56499 961.731 18.4317 964.645 36.165L954.765 37.4C952.295 23.91 944.916 17.165 932.63 17.165C927.056 17.165 922.401 18.5267 918.665 21.25C913.598 27.4567 911.065 36.2283 911.065 47.565C911.065 57.0017 913.091 64.2217 917.145 69.225C921.261 74.165 927.151 76.635 934.815 76.635C939.945 76.635 944.125 75.5583 947.355 73.405C950.458 70.3017 952.706 65.9 954.1 60.2H964.075C962.555 67.99 959.261 73.9433 954.195 78.06C949.191 82.1767 942.383 84.235 933.77 84.235ZM997.985 84.14C989.182 84.14 982.31 81.48 977.37 76.16C972.494 70.7767 970.055 63.24 970.055 53.55C970.055 43.6067 972.494 35.88 977.37 30.37C982.31 24.7967 989.182 22.01 997.985 22.01C1006.85 22.01 1013.76 24.765 1018.7 30.275C1023.64 35.785 1026.11 43.5117 1026.11 53.455C1026.11 63.2083 1023.64 70.7767 1018.7 76.16C1013.82 81.48 1006.92 84.14 997.985 84.14ZM999.125 76.825C1004 76.825 1007.9 75.4 1010.81 72.55C1014.36 67.5467 1016.13 61.1183 1016.13 53.265C1016.13 45.665 1014.45 39.775 1011.1 35.595C1007.74 31.415 1003.02 29.325 996.94 29.325C994.154 29.325 991.62 29.895 989.34 31.035C987.124 32.1117 985.255 33.695 983.735 35.785C981.329 40.7883 980.125 46.6783 980.125 53.455C980.125 60.9283 981.772 66.6917 985.065 70.745C988.359 74.7983 993.045 76.825 999.125 76.825ZM1075.23 83C1075.99 72.36 1076.43 66.47 1076.56 65.33H1075.7C1073.8 70.9667 1070.86 75.5267 1066.87 79.01C1062.88 82.4933 1058.16 84.235 1052.71 84.235C1045.81 84.235 1040.49 81.5117 1036.75 76.065C1033.02 70.555 1031.15 62.9233 1031.15 53.17C1031.15 43.86 1033.18 36.3867 1037.23 30.75C1041.28 25.1133 1047.11 22.295 1054.71 22.295C1058.19 22.295 1061.42 23.055 1064.4 24.575C1067.44 26.0317 1069.94 28.1217 1071.9 30.845C1073.93 33.505 1075.23 36.545 1075.8 39.965H1076.75C1076.5 34.5183 1076.18 29.7683 1075.8 25.715C1075.67 19.635 1075.61 14.7583 1075.61 11.085L1085.58 10.23C1085.46 27.2033 1085.39 41.0733 1085.39 51.84C1085.39 63.4933 1085.49 73.88 1085.68 83H1075.23ZM1056.89 76.825C1061.26 76.825 1065 75.5267 1068.1 72.93C1071.27 70.3333 1073.8 66.6917 1075.7 62.005V49.845C1075.7 45.9183 1074.85 42.4033 1073.14 39.3C1071.43 36.1967 1069.21 33.8217 1066.49 32.175C1063.77 30.465 1060.92 29.61 1057.94 29.61C1053.76 29.61 1049.99 31.0667 1046.63 33.98C1042.9 38.9833 1041.03 45.3483 1041.03 53.075C1041.03 56.3683 1041.47 59.82 1042.36 63.43C1043.31 67.04 1044.96 70.175 1047.3 72.835C1049.71 75.495 1052.9 76.825 1056.89 76.825ZM1134.19 72.455C1136.28 69.1617 1137.67 65.5833 1138.37 61.72L1148.15 62.005C1145.62 76.7617 1136.69 84.14 1121.36 84.14C1112.43 84.14 1105.63 81.5117 1100.94 76.255C1096.32 70.935 1094 63.335 1094 53.455C1094 43.4483 1096.44 35.7533 1101.32 30.37C1106.2 24.9233 1113.16 22.2 1122.22 22.2C1130.45 22.2 1136.79 24.7333 1141.22 29.8C1145.65 34.8033 1148.09 42.055 1148.53 51.555H1148.15L1103.98 55.545C1104.23 62.195 1105.94 67.3883 1109.11 71.125C1112.34 74.8617 1116.58 76.73 1121.84 76.73C1126.84 76.73 1130.96 75.305 1134.19 72.455ZM1121.55 29.515C1118.7 29.515 1116.04 30.085 1113.57 31.225C1111.17 32.365 1109.14 33.9483 1107.49 35.975C1105.4 40.2817 1104.23 45.4433 1103.98 51.46L1138.56 48.515C1137.86 42.435 1136.06 37.7483 1133.14 34.455C1130.29 31.1617 1126.43 29.515 1121.55 29.515ZM1154.56 67.8L1189.33 52.98L1154.56 38.16L1156.94 32.84L1195.98 49.845V56.02L1156.94 73.025L1154.56 67.8Z" fill="black"/>
<path d="M198.71 80.6312L203.746 98.9168C204.158 100.414 205.852 100.697 206.632 99.3998L216.169 83.5523L223.895 24.9122L206.436 21.9911L198.71 80.6312ZM220.46 27.7324L213.281 82.2208C213.27 82.2992 212.784 82.8804 212.744 82.8737L201.898 81.059C201.982 80.8647 201.781 80.5792 201.79 80.5106L208.996 25.8144L220.459 27.7323L220.46 27.7324Z" fill="#408BF7"/>
<path d="M224.02 22.5999L225.086 14.5043C225.57 10.8355 223.435 7.43933 220.318 6.91791L214.498 5.94418C211.382 5.42267 208.463 7.97408 207.98 11.6422L206.914 19.7378L224.02 22.5999Z" fill="#408BF7"/>
<path d="M211.249 78.4864C211.121 79.4609 210.346 80.1386 209.518 80.0001C208.69 79.8616 208.123 78.9593 208.251 77.9848L214.077 33.7715C214.205 32.797 214.98 32.1193 215.808 32.2578C216.636 32.3963 217.203 33.2986 217.075 34.2731L211.249 78.4864Z" fill="#408BF7"/>
</svg>
