<svg width="200" height="54" viewBox="0 0 200 54" fill="none" xmlns="http://www.w3.org/2000/svg">
<g clip-path="url(#clip0_581_842)">
<path d="M5.38843 3.18891L7.38677 7.07905C7.56427 7.42966 7.42113 7.85262 7.04322 8.03628C6.68249 8.2088 6.23587 8.07523 6.05836 7.72462L4.06002 3.83448L2.98355 4.35762C2.63427 4.52458 2.18193 4.37988 2.00443 4.02927C1.8212 3.66752 1.9758 3.239 2.32508 3.07204L5.79497 1.39132C6.17288 1.20767 6.60232 1.35236 6.78555 1.71411C6.96306 2.06472 6.83136 2.49325 6.45345 2.6769L5.39416 3.18891H5.38843Z" fill="#FD6824"/>
<path d="M13.4677 2.57673L13.336 0.76801C13.3073 0.367309 13.6165 0.0278267 14.0174 2.21771e-07C14.4296 -0.0278262 14.7789 0.261569 14.8075 0.66227L15.1797 5.71555C15.2083 6.10512 14.9049 6.44461 14.4926 6.47243C14.0918 6.50026 13.7311 6.21086 13.7024 5.82129L13.5707 4.01257L11.2174 4.17953L11.3491 5.98825C11.3777 6.37782 11.0628 6.7173 10.6563 6.74513C10.2554 6.77296 9.89471 6.48356 9.86608 6.09399L9.48817 1.04071C9.45954 0.640009 9.76874 0.300526 10.1695 0.272699C10.5818 0.244873 10.9425 0.534268 10.9712 0.934969L11.1029 2.74369L13.4505 2.57673H13.4677Z" fill="#FD6824"/>
<path d="M22.1824 1.43584C22.5661 1.54158 22.8008 1.93672 22.6863 2.32072C22.5718 2.6936 22.1595 2.92178 21.7702 2.81047L19.1534 2.07585L18.8385 3.12769L21.0373 3.74544C21.4209 3.85118 21.6557 4.24631 21.5411 4.64701C21.4323 5.00876 21.0144 5.23693 20.6307 5.12563L18.432 4.50788L18.1228 5.54303L20.7395 6.27764C21.1231 6.38338 21.3579 6.78965 21.2377 7.18479C21.1231 7.55766 20.7109 7.77471 20.3272 7.6634L16.989 6.72287C16.6054 6.61156 16.3706 6.22199 16.4852 5.82686L17.9281 0.979489C18.0483 0.573223 18.4549 0.378438 18.8442 0.489744L22.1824 1.43028V1.43584Z" fill="#FD6824"/>
<path d="M118.326 39.3633C118.085 38.573 118.52 37.7104 119.328 37.4711C119.46 37.421 119.626 37.3932 119.792 37.3932C120.439 37.3932 121.063 37.8161 121.275 38.445L124.029 47.1881L126.783 38.4172C127.029 37.7883 127.596 37.3932 128.266 37.3932C128.936 37.3932 129.537 37.7827 129.726 38.4172L132.48 47.1881L135.263 38.4395C135.452 37.8106 136.099 37.3876 136.746 37.3876C136.912 37.3876 137.044 37.4154 137.181 37.4655C137.994 37.7048 138.452 38.5675 138.183 39.3577L133.969 52.5363C133.78 53.1151 133.133 53.5882 132.452 53.5603C131.805 53.5603 131.209 53.1096 131.02 52.5363L128.266 43.7933L125.483 52.5363C125.317 53.1151 124.67 53.5882 124.023 53.5603C123.353 53.5603 122.781 53.1096 122.569 52.5363L118.332 39.3577L118.326 39.3633Z" fill="#FD6824"/>
<path d="M158.109 52.041V38.8624C158.109 38.0499 158.779 37.3876 159.627 37.3876H165.301C168.324 37.3876 170.758 39.7807 170.758 42.7192C170.758 44.6114 169.733 46.2865 168.17 47.2326L170.603 51.3008C171.004 52.0355 170.735 52.9036 170.036 53.3767C169.79 53.4769 169.55 53.5603 169.281 53.5603C168.737 53.5603 168.17 53.2709 167.901 52.7979L165.095 48.0173H161.178V52.0355C161.178 52.848 160.503 53.5603 159.638 53.5603C158.774 53.5603 158.121 52.848 158.121 52.0355H158.115L158.109 52.041ZM161.161 40.3539V45.0566H165.295C166.595 45.0566 167.729 43.9769 167.729 42.7192C167.729 41.4614 166.595 40.3539 165.295 40.3539H161.161Z" fill="#FD6824"/>
<path d="M173.277 38.8847C173.277 38.0443 173.982 37.3876 174.795 37.3876C175.688 37.3876 176.364 38.0443 176.364 38.8847V50.544H182.737C183.573 50.544 184.277 51.2285 184.277 52.0688C184.277 52.9092 183.573 53.5659 182.737 53.5659H174.795C173.987 53.5659 173.277 52.8814 173.277 52.0688V38.8902V38.8847Z" fill="#FD6824"/>
<path d="M191.709 37.3876C196.278 37.3876 200 40.9828 200 45.474C200 49.9652 196.272 53.5603 191.709 53.5603H187.575C186.687 53.5603 186.006 52.9036 186.006 52.0633V38.8568C186.006 38.0443 186.682 37.382 187.575 37.382H191.709V37.3876ZM189.081 40.3762V50.5384H191.703C194.566 50.5384 196.891 48.2511 196.891 45.4684C196.891 42.6858 194.572 40.3762 191.703 40.3762H189.081Z" fill="#FD6824"/>
<path d="M155.326 41.8677C154.336 39.8029 152.578 38.2391 150.373 37.46C145.827 35.846 140.783 38.1389 139.128 42.5578C137.496 46.9209 139.769 51.7461 144.201 53.4156C144.258 53.4379 144.315 53.4602 144.373 53.488C145.352 53.833 146.365 54.0056 147.373 54.0056C148.638 54.0056 149.898 53.7329 151.072 53.2042C153.196 52.2414 154.805 50.5328 155.607 48.3902C156.409 46.2475 156.305 43.938 155.315 41.8677H155.321H155.326ZM153.677 42.6134C153.866 43.0085 154.015 43.4148 154.118 43.8322L151.816 43.0197C151.971 42.0958 152.04 41.211 152 40.4263C152.698 41.0329 153.271 41.7675 153.677 42.619V42.6134ZM149.097 46.0806C148.89 46.6371 148.661 47.1714 148.421 47.6834L145.117 46.5147C145.266 45.9748 145.443 45.4183 145.655 44.8674C145.913 44.1773 146.182 43.5595 146.463 43.003L149.721 44.155C149.566 44.756 149.366 45.3961 149.102 46.0862L149.097 46.0806ZM144.991 51.824C144.899 51.7906 144.539 51.3509 144.556 49.9151C144.562 49.4031 144.619 48.8354 144.722 48.251L147.573 49.2584C147.259 49.7759 146.932 50.2434 146.594 50.633C145.661 51.7461 145.088 51.8518 144.997 51.824H144.991ZM147.333 41.4336C148.346 39.8642 149.28 39.1073 149.675 39.1073C149.703 39.1073 149.732 39.1073 149.749 39.1184C150.076 39.2353 150.356 40.4318 150.07 42.4019L147.327 41.4336H147.333ZM145.592 40.8158L143.296 40.0033C144.418 39.213 145.764 38.7622 147.173 38.7177C146.623 39.2909 146.09 40.0089 145.598 40.8103H145.592V40.8158ZM141.848 41.3668L144.739 42.3908C144.441 42.9974 144.178 43.6263 143.938 44.2552C143.731 44.8061 143.548 45.3627 143.394 45.9025L140.445 44.8618C140.502 44.2886 140.622 43.7209 140.828 43.1588C141.075 42.5021 141.424 41.9011 141.842 41.3724H141.848V41.3668ZM140.559 46.7763L142.987 47.6333C142.838 48.4347 142.752 49.1972 142.741 49.8872C142.741 50.1099 142.741 50.3158 142.758 50.5161C141.619 49.5311 140.857 48.2121 140.559 46.7707V46.7763ZM150.31 51.5958C149.434 51.9965 148.507 52.2024 147.568 52.2247C147.705 52.08 147.854 51.9241 147.997 51.7461C148.444 51.2118 148.885 50.5718 149.297 49.865L151.73 50.722C151.295 51.056 150.82 51.3565 150.31 51.5847V51.5958ZM153.906 47.7836C153.7 48.3401 153.414 48.8521 153.076 49.3307L150.127 48.29C150.368 47.778 150.591 47.2437 150.797 46.6872C151.032 46.0583 151.238 45.4016 151.421 44.756L154.319 45.7801C154.29 46.459 154.147 47.1269 153.906 47.7836Z" fill="#FD6824"/>
<path d="M31.5498 31.711C33.2561 31.711 34.6418 30.3642 34.6418 28.7058V4.6025C34.6418 3.22787 33.4966 2.11481 32.0823 2.11481C30.668 2.11481 29.5228 3.22787 29.5228 4.6025V19.8959C29.3911 19.69 29.2594 19.4841 29.122 19.2782C26.345 15.1432 22.7892 12.1602 18.8497 10.6575C13.9713 8.79872 8.57176 9.35525 4.75831 12.1045C0.343639 15.2879 -1.27107 21.2928 1.07655 25.7673C2.3248 28.1437 4.59798 29.9802 7.47238 30.9374C10.0376 31.7889 12.9177 31.9114 15.5803 31.2769C19.972 30.2307 23.5393 27.6205 26.5797 24.9993C27.2096 26.2403 28.0627 28.2995 28.6697 29.8077C29.1335 30.9597 30.2786 31.7166 31.5498 31.7166V31.711ZM14.3664 26.4407C11.2228 27.1864 7.09448 26.296 5.62864 23.5022C4.42048 21.2038 5.41679 17.8145 7.80449 16.0948C9.21878 15.0764 11.0682 14.5532 13.0093 14.5532C14.3263 14.5532 15.6891 14.7925 16.9831 15.2879C20.0121 16.4399 22.3082 18.6549 23.8771 20.6695C21.1516 23.0793 17.9794 25.5836 14.3606 26.4463H14.3664V26.4407Z" fill="#FD6824"/>
<path d="M48.6242 9.55004C54.4016 9.55004 59.2515 13.6572 60.1218 19.0722C60.6887 21.3318 59.9157 22.9346 57.0241 22.9346H42.5318C43.3048 25.4389 45.7326 27.2977 48.6185 27.2977C50.3191 27.2977 51.9166 26.5965 53.1076 25.4946C53.6744 24.9436 54.3959 24.6932 55.0658 24.6932C55.7358 24.6932 56.4057 24.9436 56.921 25.4946C57.9517 26.4463 57.9517 28.1492 56.921 29.2066C54.8082 31.2602 51.8135 32.5625 48.6185 32.5625C42.0165 32.5625 36.7544 27.448 36.7544 21.0312C36.7544 14.6145 42.0165 9.5556 48.6185 9.5556H48.6242V9.55004ZM48.6242 14.7647C45.7383 14.7647 43.3163 16.6736 42.5433 19.2281H54.6078C53.8863 16.6736 51.4642 14.7647 48.6242 14.7647Z" fill="#FD6824"/>
<path d="M77.752 9.55004C79.195 9.55004 80.3802 10.7521 80.3802 12.1546C80.3802 13.557 79.195 14.7591 77.752 14.7591H68.4188C66.409 14.7591 65.9452 16.7627 67.9035 17.4194L76.5668 20.1241C80.9013 21.4264 82.3442 24.8379 81.7258 27.6428C81.0559 30.2473 78.4277 32.5569 74.3508 32.5569H64.863C63.4201 32.5569 62.1833 31.3548 62.1833 29.9468C62.1833 28.4442 63.4201 27.2922 64.863 27.2922H74.7631C76.8244 27.2922 77.2367 25.2887 75.2784 24.632L66.5636 21.9272C62.3322 20.6751 60.8377 17.2635 61.4561 14.4586C62.126 11.804 64.7542 9.55004 68.8826 9.55004H77.752Z" fill="#FD6824"/>
<path d="M86.736 2.23725C88.4881 2.23725 89.828 3.48944 89.828 5.14233C89.828 6.79522 88.4881 8.10306 86.736 8.10306C85.0869 8.10306 83.7471 6.80078 83.7471 5.14233C83.7471 3.48387 85.0869 2.23725 86.736 2.23725ZM86.736 9.55004C88.282 9.55004 89.5188 10.7521 89.5188 12.2047V29.9468C89.5188 31.3493 88.282 32.5569 86.736 32.5569C85.2931 32.5569 84.0563 31.3548 84.0563 29.9468V12.2047C84.0563 10.7521 85.2931 9.55004 86.736 9.55004Z" fill="#FD6824"/>
<path d="M103.673 9.55004C110.12 9.55004 115.382 14.6645 115.382 21.0257C115.382 27.3868 110.12 32.5569 103.673 32.5569C97.2254 32.5569 91.8145 27.4424 91.8145 21.0257C91.8145 14.6089 97.0766 9.55004 103.673 9.55004ZM103.673 38.2725C105.894 38.2725 107.853 37.1205 108.986 35.4175C109.553 34.6161 110.429 34.1152 111.357 34.1152C111.821 34.1152 112.285 34.2655 112.697 34.5159C113.985 35.3674 114.397 36.9702 113.573 38.1723C111.454 41.3835 107.795 43.4816 103.673 43.4816C99.5501 43.4816 95.7825 41.3779 93.6181 38.1723C92.7936 36.9702 93.2058 35.3618 94.4942 34.5159C94.958 34.2655 95.3702 34.1152 95.8856 34.1152C96.8132 34.1152 97.6377 34.6161 98.2046 35.4175C99.3383 37.1205 101.348 38.2725 103.667 38.2725H103.673ZM103.673 14.7647C100.065 14.7647 97.2254 17.6253 97.2254 21.0312C97.2254 24.4372 100.06 27.2977 103.673 27.2977C107.286 27.2977 110.017 24.4928 110.017 21.0312C110.017 17.5696 107.131 14.7647 103.673 14.7647Z" fill="#FD6824"/>
<path d="M127.957 9.55004C133.786 9.55004 138.635 14.2583 138.63 19.9237V29.9468C138.63 31.3493 137.393 32.5569 135.95 32.5569C134.507 32.5569 133.219 31.3548 133.219 29.9468V19.9237C133.219 17.0687 130.791 14.7591 127.957 14.7591C125.122 14.7591 122.643 17.0687 122.643 19.9237V29.9468C122.643 31.3493 121.458 32.5569 119.912 32.5569C118.469 32.5569 117.232 31.3548 117.232 29.9468V19.9237C117.232 14.2583 122.082 9.55004 127.957 9.55004Z" fill="#FD6824"/>
<path d="M152.332 9.55004C158.109 9.55004 162.959 13.6572 163.829 19.0722C164.396 21.3318 163.623 22.9346 160.732 22.9346H146.239C147.012 25.4389 149.44 27.2977 152.326 27.2977C154.027 27.2977 155.624 26.5965 156.815 25.4946C157.382 24.9436 158.103 24.6932 158.773 24.6932C159.443 24.6932 160.113 24.9436 160.629 25.4946C161.659 26.4463 161.659 28.1492 160.629 29.2066C158.516 31.2602 155.521 32.5625 152.326 32.5625C145.724 32.5625 140.462 27.448 140.462 21.0312C140.462 14.6145 145.724 9.5556 152.326 9.5556H152.332V9.55004ZM152.332 14.7647C149.446 14.7647 147.024 16.6736 146.251 19.2281H158.315C157.594 16.6736 155.172 14.7647 152.332 14.7647Z" fill="#FD6824"/>
<path d="M176.289 9.55004C177.732 9.55004 178.969 10.7521 178.969 12.1546C178.969 13.557 177.732 14.7591 176.289 14.7591C173.3 14.7591 170.975 17.0687 170.975 19.9237V29.9969C170.975 31.4995 169.79 32.6571 168.295 32.6571C166.801 32.6571 165.616 31.5051 165.616 29.9969V19.9237C165.616 14.2583 170.414 9.55004 176.295 9.55004H176.289Z" fill="#FD6824"/>
<path d="M195.814 9.55004C197.257 9.55004 198.442 10.7521 198.442 12.1546C198.442 13.557 197.257 14.7591 195.814 14.7591H186.481C184.471 14.7591 184.007 16.7627 185.965 17.4194L194.629 20.1241C198.963 21.4264 200.406 24.8379 199.788 27.6428C199.118 30.2473 196.49 32.5569 192.413 32.5569H182.925C181.482 32.5569 180.245 31.3548 180.245 29.9468C180.245 28.4442 181.482 27.2922 182.925 27.2922H192.825C194.886 27.2922 195.299 25.2887 193.34 24.632L184.626 21.9272C180.394 20.6751 178.9 17.2635 179.518 14.4586C180.188 11.804 182.816 9.55004 186.945 9.55004H195.814Z" fill="#FD6824"/>
</g>
<defs>
<clipPath id="clip0_581_842">
<rect width="200" height="54" fill="white"/>
</clipPath>
</defs>
</svg>
