<svg width="18" height="18" viewBox="0 0 18 18" fill="none" xmlns="http://www.w3.org/2000/svg">
<path d="M16.7272 4.92467C15.7366 2.85995 13.9788 1.2961 11.7743 0.516963C7.22793 -1.09697 2.18341 1.19593 0.528623 5.61477C-1.10326 9.97796 1.16992 14.8031 5.60177 16.4726C5.65903 16.4949 5.71629 16.5172 5.77355 16.545C6.75268 16.89 7.76617 17.0626 8.77392 17.0626C10.0393 17.0626 11.299 16.7899 12.4729 16.2612C14.5972 15.2984 16.2061 13.5898 17.0078 11.4472C17.8094 9.30455 17.7063 6.99496 16.7157 4.92467H16.7215H16.7272ZM15.0781 5.67042C15.2671 6.06556 15.416 6.47182 15.519 6.88922L13.2172 6.07669C13.3718 5.15285 13.4405 4.26797 13.4004 3.48326C14.099 4.08988 14.6716 4.8245 15.0781 5.67599V5.67042ZM10.4974 9.1376C10.2913 9.69413 10.0622 10.2284 9.82176 10.7404L6.51792 9.57169C6.66679 9.03186 6.8443 8.47533 7.05616 7.92437C7.31382 7.23427 7.58293 6.61652 7.8635 6.05999L11.1215 7.212C10.9669 7.81306 10.7665 8.45306 10.5031 9.14316L10.4974 9.1376ZM6.39195 14.881C6.30033 14.8476 5.93961 14.4079 5.95678 12.9721C5.96251 12.4601 6.01976 11.8924 6.12283 11.3081L8.97433 12.3154C8.65941 12.8329 8.33302 13.3004 7.99519 13.69C7.06187 14.8031 6.48929 14.9088 6.39767 14.881H6.39195ZM8.73384 4.49058C9.74732 2.92117 10.6806 2.16429 11.0757 2.16429C11.1044 2.16429 11.133 2.16429 11.1502 2.17542C11.4765 2.29229 11.7571 3.48883 11.4708 5.45894L8.72811 4.49058H8.73384ZM6.99317 3.87283L4.69708 3.0603C5.81935 2.27003 7.16494 1.81924 8.57351 1.77472C8.02383 2.34794 7.49132 3.06587 6.99889 3.86727H6.99317V3.87283ZM3.24843 4.4238L6.14001 5.44781C5.84226 6.05443 5.57887 6.6833 5.33838 7.31218C5.13225 7.86314 4.94902 8.41968 4.79442 8.95951L1.84558 7.9188C1.90284 7.34557 2.02308 6.77792 2.22922 6.21582C2.47543 5.55912 2.82471 4.95806 3.2427 4.42936H3.24843V4.4238ZM1.9601 9.83326L4.38788 10.6903C4.23901 11.4917 4.15312 12.2542 4.14166 12.9443C4.14166 13.1669 4.14167 13.3728 4.15885 13.5731C3.0194 12.5881 2.25784 11.2691 1.9601 9.82769V9.83326ZM11.7113 14.6528C10.8353 15.0535 9.90765 15.2594 8.9686 15.2817C9.10603 15.137 9.2549 14.9812 9.39805 14.8031C9.84467 14.2688 10.2856 13.6288 10.6978 12.922L13.1313 13.779C12.6962 14.113 12.2209 14.4135 11.7113 14.6417V14.6528ZM15.3072 10.8406C15.101 11.3971 14.8147 11.9091 14.4769 12.3877L11.5281 11.347C11.7686 10.835 11.9919 10.3007 12.198 9.74421C12.4328 9.11533 12.6389 8.45863 12.8221 7.81306L15.7194 8.83707C15.6908 9.51604 15.5477 10.1839 15.3072 10.8406Z" fill="#FD6824"/>
</svg>
